<?xml version="1.0" standalone="no"?>
<!DOCTYPE svg PUBLIC "-//W3C//DTD SVG 20010904//EN"
 "http://www.w3.org/TR/2001/REC-SVG-20010904/DTD/svg10.dtd">
<svg version="1.0" xmlns="http://www.w3.org/2000/svg"
 width="512.000000pt" height="512.000000pt" viewBox="0 0 512.000000 512.000000"
 preserveAspectRatio="xMidYMid meet">

<g transform="translate(0.000000,512.000000) scale(0.100000,-0.100000)"
fill="#000000" stroke="none">
<path d="M1100 3460 l0 -410 -315 0 -315 0 0 -150 0 -150 315 0 315 0 0 -160
0 -160 -252 -2 -253 -3 0 -150 0 -150 253 -3 252 -2 0 -160 0 -160 -330 0
-330 0 0 -150 0 -150 330 0 330 0 0 -130 0 -130 2005 0 2005 0 0 1315 0 1315
-2005 0 -2005 0 0 -410z m3520 96 c-8 -7 -352 -277 -763 -600 -444 -348 -753
-583 -760 -579 -16 9 -1488 1162 -1507 1179 -12 12 221 14 1515 14 1300 0
1527 -2 1515 -14z m-2357 -910 c460 -361 840 -656 842 -656 4 0 1401 1092
1693 1323 9 7 12 -170 12 -882 l0 -891 -1705 0 -1705 0 0 891 c0 712 3 889 13
882 6 -6 389 -305 850 -667z"/>
<path d="M30 2900 l0 -150 145 0 145 0 0 150 0 150 -145 0 -145 0 0 -150z"/>
<path d="M140 2275 l0 -145 150 0 150 0 0 145 0 145 -150 0 -150 0 0 -145z"/>
<path d="M0 1650 l0 -150 145 0 145 0 0 150 0 150 -145 0 -145 0 0 -150z"/>
</g>
</svg>
