<?xml version="1.0" standalone="no"?>
<!DOCTYPE svg PUBLIC "-//W3C//DTD SVG 20010904//EN"
 "http://www.w3.org/TR/2001/REC-SVG-20010904/DTD/svg10.dtd">
<svg version="1.0" xmlns="http://www.w3.org/2000/svg"
 width="512.000000pt" height="512.000000pt" viewBox="0 0 512.000000 512.000000"
 preserveAspectRatio="xMidYMid meet">

<g transform="translate(0.000000,512.000000) scale(0.100000,-0.100000)"
fill="#000000" stroke="none">
<path d="M944 5104 c-484 -81 -850 -450 -929 -937 -22 -138 -22 -3076 0 -3214
80 -491 447 -858 938 -938 138 -22 3076 -22 3214 0 491 80 858 447 938 938 22
138 22 3076 0 3214 -80 491 -447 858 -938 938 -131 21 -3097 21 -3223 -1z
m3222 -303 c316 -65 570 -319 635 -635 18 -87 19 -165 19 -1606 0 -1441 -1
-1519 -19 -1606 -65 -316 -319 -570 -635 -635 -87 -18 -165 -19 -1606 -19
-1441 0 -1519 1 -1606 19 -316 65 -570 319 -635 635 -18 87 -19 165 -19 1606
0 1441 1 1519 19 1606 65 313 318 569 631 635 80 16 180 18 1605 18 1447 1
1524 0 1611 -18z"/>
<path d="M4053 4316 c-88 -41 -133 -150 -99 -239 32 -84 97 -130 186 -130 206
0 272 275 88 367 -64 32 -108 33 -175 2z"/>
<path d="M2305 4081 c-237 -44 -403 -110 -595 -236 -340 -225 -572 -567 -662
-976 -19 -89 -22 -133 -22 -309 0 -176 3 -220 22 -309 134 -613 590 -1069
1203 -1203 89 -19 133 -22 309 -22 176 0 220 3 309 22 613 134 1069 590 1203
1203 19 89 22 133 22 309 0 176 -3 220 -22 309 -134 611 -591 1070 -1198 1202
-143 30 -430 36 -569 10z m535 -311 c47 -11 115 -32 152 -45 325 -117 616
-408 732 -730 59 -164 71 -236 71 -435 0 -199 -12 -271 -71 -435 -116 -322
-407 -613 -732 -730 -160 -58 -234 -70 -432 -70 -199 0 -271 12 -435 71 -322
116 -613 407 -730 732 -58 160 -70 234 -70 432 0 198 12 272 70 432 120 332
414 623 746 737 72 25 161 47 259 65 14 2 99 3 190 1 127 -2 185 -8 250 -25z"/>
</g>
</svg>
