<?xml version="1.0" standalone="no"?>
<!DOCTYPE svg PUBLIC "-//W3C//DTD SVG 20010904//EN"
 "http://www.w3.org/TR/2001/REC-SVG-20010904/DTD/svg10.dtd">
<svg version="1.0" xmlns="http://www.w3.org/2000/svg"
 width="512.000000pt" height="512.000000pt" viewBox="0 0 512.000000 512.000000"
 preserveAspectRatio="xMidYMid meet">

<g transform="translate(0.000000,512.000000) scale(0.100000,-0.100000)"
fill="#000000" stroke="none">
<path d="M2360 5114 c-670 -63 -1233 -338 -1683 -822 -279 -302 -490 -689
-593 -1092 -148 -581 -91 -1193 164 -1740 22 -47 56 -114 76 -148 20 -35 36
-71 36 -80 -1 -10 -81 -289 -180 -622 -98 -333 -178 -606 -177 -607 1 -1 274
79 607 177 333 99 612 179 622 180 9 0 47 -17 85 -39 169 -96 408 -190 611
-240 915 -227 1855 53 2508 749 651 695 858 1715 527 2605 -192 516 -536 948
-1003 1260 -127 85 -383 215 -531 269 -135 50 -341 102 -494 126 -127 20 -466
34 -575 24z m529 -319 c743 -116 1372 -578 1702 -1250 350 -714 294 -1560
-147 -2225 -309 -467 -790 -809 -1330 -946 -455 -115 -918 -90 -1354 73 -111
42 -281 125 -397 194 l-82 50 -411 -122 c-226 -66 -414 -119 -417 -116 -3 3
50 191 116 417 l122 411 -50 82 c-327 546 -419 1157 -265 1765 177 696 692
1277 1366 1541 173 67 433 127 628 145 93 8 419 -4 519 -19z"/>
<path d="M1620 4168 c-75 -28 -262 -214 -309 -305 -199 -396 -86 -1102 266
-1651 349 -546 962 -931 1613 -1011 122 -16 353 -14 452 4 194 34 289 84 431
226 114 115 142 171 142 284 0 129 -7 139 -324 456 -180 180 -291 285 -320
299 -87 44 -206 43 -293 -1 -20 -10 -80 -60 -131 -109 -101 -96 -142 -120
-206 -120 -85 0 -107 18 -383 304 -143 149 -267 285 -274 303 -19 44 -17 117
3 156 9 18 55 73 103 122 109 112 132 156 138 255 3 60 0 87 -18 135 -21 56
-43 80 -309 346 -263 263 -291 288 -344 308 -75 27 -163 27 -237 -1z m373
-516 c130 -132 237 -245 237 -252 0 -8 -40 -55 -89 -104 -48 -50 -100 -113
-114 -141 -79 -157 -77 -327 7 -475 26 -47 277 -319 531 -576 110 -112 220
-158 375 -158 163 0 253 40 400 180 l91 87 225 -224 c124 -123 235 -237 247
-253 l21 -29 -85 -81 c-74 -73 -92 -84 -154 -104 -95 -30 -220 -41 -367 -31
-418 27 -862 221 -1178 514 -317 294 -527 684 -606 1125 -23 130 -24 380 -1
473 9 37 27 86 38 110 26 51 146 177 168 177 9 0 123 -107 254 -238z"/>
</g>
</svg>
